<svg width="98" height="24" viewBox="0 0 98 24" fill="none" xmlns="http://www.w3.org/2000/svg">
<path d="M86.2627 7.1457H90.9234V10.1985H90.9924C91.1996 9.72152 91.5103 9.24452 91.9246 8.79931C92.3043 8.35411 92.7531 8.00431 93.271 7.68631C93.7543 7.3683 94.3067 7.1457 94.8936 6.9549C95.446 6.7959 96.0674 6.7323 96.6888 6.7005C96.9995 6.7005 97.3448 6.7641 97.7591 6.8595V11.0571C97.5174 11.0253 97.2412 10.9935 96.9305 10.9617C96.5853 10.9299 96.2745 10.8981 95.9984 10.8981C95.1007 10.8981 94.3412 11.0571 93.7198 11.3115C93.0984 11.5977 92.5805 11.9793 92.2008 12.4563C91.821 12.9333 91.5448 13.4739 91.4067 14.11C91.2341 14.746 91.165 15.4456 91.165 16.177V23.6606H86.2627V7.1457Z" fill="#10239E"/>
<path d="M79.6615 13.6012C79.4198 12.4563 79.0055 11.5977 78.4186 10.9935C77.8317 10.4211 76.9341 10.1349 75.7603 10.1031C74.9663 10.1031 74.3103 10.2303 73.7925 10.4847C73.2746 10.7391 72.8603 11.0253 72.5496 11.3751C72.2389 11.7567 72.0318 12.1383 71.8937 12.5199C71.7556 12.9333 71.6865 13.2831 71.6865 13.6012H79.6615ZM71.6865 16.4632C71.7556 17.926 72.1353 19.0072 72.8949 19.6432C73.6199 20.311 74.6901 20.629 76.071 20.629C77.0377 20.629 77.9008 20.4064 78.6258 19.9612C79.3162 19.516 79.7651 19.0072 79.9377 18.4984H84.2531C83.5627 20.47 82.4924 21.901 81.077 22.7278C79.627 23.5864 77.9008 23.9998 75.8984 23.9998C74.4829 23.9998 73.2056 23.809 72.1008 23.3956C70.9615 22.9822 69.9949 22.378 69.2354 21.6148C68.4413 20.8516 67.8199 19.9612 67.4056 18.88C66.9913 17.8306 66.7842 16.654 66.7842 15.382C66.7842 14.1736 66.9913 13.0287 67.4401 11.9475C67.8544 10.8981 68.4758 9.97592 69.3044 9.21272C70.0984 8.44951 71.0651 7.81351 72.1699 7.3683C73.2746 6.9231 74.5175 6.7005 75.8984 6.7005C77.4175 6.7005 78.7293 6.9867 79.8686 7.52731C80.9734 8.06791 81.9055 8.79932 82.6305 9.68972C83.3555 10.6119 83.8734 11.6613 84.2186 12.8061C84.5293 13.9828 84.6329 15.1912 84.5638 16.4632H71.6865Z" fill="#10239E"/>
<path d="M60.7615 23.6606H55.3068L49.2275 7.14566H54.3716L58.1346 18.3711H58.2037L61.9667 7.14566H66.8346L60.7615 23.6606Z" fill="#10239E"/>
<path d="M44.3177 13.6012C44.0761 12.4563 43.6618 11.5977 43.0749 10.9935C42.488 10.4211 41.5904 10.1349 40.4166 10.1031C39.6225 10.1031 38.9666 10.2303 38.4487 10.4847C37.9309 10.7391 37.5166 11.0253 37.2059 11.3751C36.8952 11.7567 36.688 12.1383 36.5499 12.5199C36.4118 12.9333 36.3428 13.2831 36.3428 13.6012H44.3177ZM36.3428 16.4632C36.4118 17.926 36.7916 19.0072 37.5511 19.6432C38.2761 20.311 39.3463 20.629 40.7273 20.629C41.6939 20.629 42.557 20.4064 43.282 19.9612C43.9725 19.516 44.4213 19.0072 44.5939 18.4984H48.9094C48.2189 20.47 47.1487 21.901 45.7332 22.7278C44.2832 23.5864 42.557 23.9998 40.5547 23.9998C39.1392 23.9998 37.8618 23.809 36.7571 23.3956C35.6178 22.9822 34.6511 22.378 33.8916 21.6148C33.0976 20.8516 32.4761 19.9612 32.0619 18.88C31.6476 17.8306 31.4404 16.654 31.4404 15.382C31.4404 14.1736 31.6476 13.0287 32.0964 11.9475C32.5107 10.8981 33.1321 9.97592 33.9607 9.21272C34.7547 8.44951 35.7214 7.81351 36.8261 7.3683C37.9309 6.9231 39.1737 6.7005 40.5547 6.7005C42.0737 6.7005 43.3856 6.9867 44.5249 7.52731C45.6296 8.06791 46.5618 8.79932 47.2868 9.68972C48.0118 10.6119 48.5296 11.6613 48.8748 12.8061C49.1856 13.9828 49.2891 15.1912 49.2201 16.4632H36.3428Z" fill="#10239E"/>
<path d="M24.8569 0.128479H29.6902V23.6606H24.8569V0.128479Z" fill="#10239E"/>
<path d="M17.5473 8.22455C17.4435 7.65751 17.2358 7.15347 16.9243 6.68094C16.5782 6.20841 16.1975 5.79888 15.713 5.42085C15.2285 5.07433 14.6747 4.79081 14.0517 4.60179C13.4287 4.41278 12.8057 4.31827 12.1482 4.28677C10.9022 4.28677 9.86388 4.50729 9.03324 4.94832C8.16799 5.38935 7.47579 5.95639 6.95663 6.68094C6.40287 7.40549 6.02216 8.22455 5.77989 9.13811C5.53762 10.0832 5.43379 11.0282 5.43379 12.0048C5.43379 12.9499 5.53762 13.895 5.77989 14.777C6.02216 15.6591 6.40287 16.4781 6.95663 17.1712C7.47579 17.8957 8.16799 18.4628 9.03324 18.9038C9.86388 19.3448 10.9022 19.5338 12.1482 19.5338C13.8094 19.5338 15.09 19.0928 16.0245 18.1478C16.959 17.2342 17.5473 16.0056 17.755 14.4935H23.0157C22.8773 15.9111 22.4966 17.1712 21.9428 18.3053C21.3544 19.4393 20.593 20.4159 19.6585 21.2035C18.6895 22.0225 17.5819 22.6211 16.336 23.0306C15.0554 23.4716 13.671 23.6606 12.1482 23.6606C10.2446 23.6606 8.5487 23.3771 7.02585 22.7786C5.50301 22.18 4.25704 21.361 3.21874 20.2899C2.18044 19.2503 1.3844 18.0217 0.830643 16.6041C0.276881 15.1865 0 13.6429 0 12.0048C0 10.3352 0.276881 8.79159 0.830643 7.34249C1.3844 5.89338 2.18044 4.6333 3.21874 3.56222C4.25704 2.52265 5.50301 1.67209 7.02585 1.04204C8.5487 0.443501 10.2446 0.159981 12.1482 0.128479C13.4979 0.128479 14.7785 0.317492 15.9899 0.664016C17.2012 1.04204 18.2741 1.54608 19.2432 2.23913C20.2123 2.93218 21.0083 3.75123 21.6313 4.7593C22.2543 5.76738 22.635 6.93296 22.8081 8.22455H17.5473Z" fill="#10239E"/>
</svg>
